{"accessors" : [{"bufferView" : 0, "byteOffset" : 0, "componentType" : 5123, "count" : 618, "type" : "SCALAR", "max" : [511], "min" : [0]}, {"bufferView" : 1, "byteOffset" : 0, "componentType" : 5126, "count" : 512, "type" : "VEC3", "max" : [0.047391314059495926, 1.7448132038116455, 0.10622289031744003], "min" : [0.013327594846487045, 1.7108319997787476, 0.08932480961084366], "name" : "POSITION"}, {"bufferView" : 1, "byteOffset" : 12, "componentType" : 5126, "count" : 512, "type" : "VEC3", "max" : [0.9445918202400208, 0.9521567821502686, 1.0000042915344238], "min" : [-0.9443764686584473, -0.947105348110199, -1.0000042915344238], "name" : "NORMAL"}, {"bufferView" : 1, "byteOffset" : 24, "componentType" : 5126, "count" : 512, "type" : "VEC2", "max" : [0.9646214246749878, 0.9818061590194702], "min" : [0.019903719425201416, 0.020990610122680664], "name" : "TEXCOORD_0"}, {"bufferView" : 0, "byteOffset" : 1236, "componentType" : 5123, "count" : 618, "type" : "SCALAR", "max" : [514], "min" : [0]}, {"bufferView" : 2, "byteOffset" : 0, "componentType" : 5126, "count" : 515, "type" : "VEC3", "max" : [-0.013898074626922607, 1.7449063062667847, 0.10622280091047287], "min" : [-0.04796179383993149, 1.7107599973678589, 0.08932472765445709], "name" : "POSITION"}, {"bufferView" : 2, "byteOffset" : 12, "componentType" : 5126, "count" : 515, "type" : "VEC3", "max" : [0.9443771839141846, 0.9526705741882324, 1.0000042915344238], "min" : [-0.9445911645889282, -0.9411923289299011, -1.0000042915344238], "name" : "NORMAL"}, {"bufferView" : 2, "byteOffset" : 24, "componentType" : 5126, "count" : 515, "type" : "VEC2", "max" : [0.9585750699043274, 0.966354489326477], "min" : [0.006885886192321777, 0.022762417793273926], "name" : "TEXCOORD_0"}, {"bufferView" : 0, "byteOffset" : 2472, "componentType" : 5123, "count" : 4230, "type" : "SCALAR", "max" : [3392], "min" : [0]}, {"bufferView" : 3, "byteOffset" : 0, "componentType" : 5126, "count" : 3393, "type" : "VEC3", "max" : [0.5314633846282959, 1.0861543416976929, 0.14859189093112946], "min" : [-0.5314704775810242, 0.8878021240234375, -0.00014529463078361005], "name" : "POSITION"}, {"bufferView" : 3, "byteOffset" : 12, "componentType" : 5126, "count" : 3393, "type" : "VEC3", "max" : [0.9983755350112915, 0.8493713140487671, 0.9933786988258362], "min" : [-0.9984799027442932, -0.990003228187561, -0.9768094420433044], "name" : "NORMAL"}, {"bufferView" : 3, "byteOffset" : 24, "componentType" : 5126, "count" : 3393, "type" : "VEC2", "max" : [0.9857610464096069, 0.6144216656684875], "min" : [0.37126514315605164, 0.08261322975158691], "name" : "TEXCOORD_0"}, {"bufferView" : 0, "byteOffset" : 10932, "componentType" : 5123, "count" : 1680, "type" : "SCALAR", "max" : [1458], "min" : [0]}, {"bufferView" : 4, "byteOffset" : 0, "componentType" : 5126, "count" : 1459, "type" : "VEC3", "max" : [0.08158453553915024, 1.7390841245651245, 0.12351022660732269], "min" : [-0.08158475905656815, 1.6969459056854248, -0.004497681278735399], "name" : "POSITION"}, {"bufferView" : 4, "byteOffset" : 12, "componentType" : 5126, "count" : 1459, "type" : "VEC3", "max" : [1.0000022649765015, 0.9982002377510071, 0.9983669519424438], "min" : [-1.0000022649765015, -0.9982329607009888, -0.9983675479888916], "name" : "NORMAL"}, {"bufferView" : 4, "byteOffset" : 24, "componentType" : 5126, "count" : 1459, "type" : "VEC2", "max" : [0.6730605363845825, 0.9438689947128296], "min" : [0.022211074829101562, 0.005115091800689697], "name" : "TEXCOORD_0"}, {"bufferView" : 0, "byteOffset" : 14292, "componentType" : 5123, "count" : 12282, "type" : "SCALAR", "max" : [9712], "min" : [0]}, {"bufferView" : 5, "byteOffset" : 0, "componentType" : 5126, "count" : 9713, "type" : "VEC3", "max" : [0.0957942008972168, 1.8346750736236572, 0.14146512746810913], "min" : [-0.09610742330551147, 1.5221967697143555, -0.08921821415424347], "name" : "POSITION"}, {"bufferView" : 5, "byteOffset" : 12, "componentType" : 5126, "count" : 9713, "type" : "VEC3", "max" : [0.9989158511161804, 0.9994972944259644, 0.9999863505363464], "min" : [-0.99891197681427, -0.9996936321258545, -1.000003695487976], "name" : "NORMAL"}, {"bufferView" : 5, "byteOffset" : 24, "componentType" : 5126, "count" : 9713, "type" : "VEC2", "max" : [0.9943000078201294, 0.9807000160217285], "min" : [0.004999999888241291, 0.004350006580352783], "name" : "TEXCOORD_0"}, {"bufferView" : 0, "byteOffset" : 38856, "componentType" : 5123, "count" : 3186, "type" : "SCALAR", "max" : [2609], "min" : [0]}, {"bufferView" : 6, "byteOffset" : 0, "componentType" : 5126, "count" : 2610, "type" : "VEC3", "max" : [0.22261105477809906, 1.04866361618042, 0.1470930278301239], "min" : [-0.22262242436408997, 0.07672111690044403, -0.14552122354507446], "name" : "POSITION"}, {"bufferView" : 6, "byteOffset" : 12, "componentType" : 5126, "count" : 2610, "type" : "VEC3", "max" : [0.9990679025650024, 0.5717027187347412, 0.9980055093765259], "min" : [-0.9990822672843933, -0.9987214803695679, -0.9995874166488647], "name" : "NORMAL"}, {"bufferView" : 6, "byteOffset" : 24, "componentType" : 5126, "count" : 2610, "type" : "VEC2", "max" : [0.981376588344574, 0.9759529232978821], "min" : [0.027726292610168457, 0.02337127923965454], "name" : "TEXCOORD_0"}, {"bufferView" : 0, "byteOffset" : 45228, "componentType" : 5123, "count" : 3864, "type" : "SCALAR", "max" : [3065], "min" : [0]}, {"bufferView" : 7, "byteOffset" : 0, "componentType" : 5126, "count" : 3066, "type" : "VEC3", "max" : [0.23254166543483734, 0.21140682697296143, 0.22941508889198303], "min" : [-0.2325458973646164, -0.0008755530579946935, -0.1308000087738037], "name" : "POSITION"}, {"bufferView" : 7, "byteOffset" : 12, "componentType" : 5126, "count" : 3066, "type" : "VEC3", "max" : [0.9998719096183777, 0.99853515625, 0.9888402819633484], "min" : [-0.9998723268508911, -0.9993577599525452, -0.9790294170379639], "name" : "NORMAL"}, {"bufferView" : 7, "byteOffset" : 24, "componentType" : 5126, "count" : 3066, "type" : "VEC2", "max" : [0.9791603684425354, 0.9840542674064636], "min" : [0.010693462565541267, 0.020824730396270752], "name" : "TEXCOORD_0"}, {"bufferView" : 0, "byteOffset" : 52956, "componentType" : 5123, "count" : 6960, "type" : "SCALAR", "max" : [5651], "min" : [0]}, {"bufferView" : 8, "byteOffset" : 0, "componentType" : 5126, "count" : 5652, "type" : "VEC3", "max" : [0.46761354804039, 1.629502534866333, 0.15633675456047058], "min" : [-0.46761348843574524, 1.0184078216552734, -0.1459023803472519], "name" : "POSITION"}, {"bufferView" : 8, "byteOffset" : 12, "componentType" : 5126, "count" : 5652, "type" : "VEC3", "max" : [0.9995924234390259, 0.9374261498451233, 1.0000028610229492], "min" : [-0.9998470544815063, -0.9914166927337646, -0.9964048266410828], "name" : "NORMAL"}, {"bufferView" : 8, "byteOffset" : 24, "componentType" : 5126, "count" : 5652, "type" : "VEC2", "max" : [0.9843761920928955, 0.9911075830459595], "min" : [0.02039736695587635, 0.01573479175567627], "name" : "TEXCOORD_0"}, {"bufferView" : 0, "byteOffset" : 66876, "componentType" : 5123, "count" : 300, "type" : "SCALAR", "max" : [238], "min" : [0]}, {"bufferView" : 9, "byteOffset" : 0, "componentType" : 5126, "count" : 239, "type" : "VEC3", "max" : [0.028087500482797623, 1.6786649227142334, 0.11702147871255875], "min" : [-0.028087731450796127, 1.6422672271728516, 0.04980843886733055], "name" : "POSITION"}, {"bufferView" : 9, "byteOffset" : 12, "componentType" : 5126, "count" : 239, "type" : "VEC3", "max" : [0.9971847534179688, 0.876613438129425, 0.997871994972229], "min" : [-0.9971848726272583, -0.9868090748786926, -0.7612249255180359], "name" : "NORMAL"}, {"bufferView" : 9, "byteOffset" : 24, "componentType" : 5126, "count" : 239, "type" : "VEC2", "max" : [0.9808249473571777, 0.983213484287262], "min" : [0.051069796085357666, 0.02829587459564209], "name" : "TEXCOORD_0"}], "asset" : {"generator" : "Aspose.3D 21.11", "version" : "2.0"}, "buffers" : [{"uri" : "data:application/octet-stream;base64,", "byteLength" : 1147132}], "bufferViews" : [{"buffer" : 0, "byteOffset" : 0, "byteLength" : 67476, "target" : 34963}, {"buffer" : 0, "byteOffset" : 67480, "byteLength" : 19776, "byteStride" : 32, "target" : 34962}, {"buffer" : 0, "byteOffset" : 87260, "byteLength" : 19776, "byteStride" : 32, "target" : 34962}, {"buffer" : 0, "byteOffset" : 107040, "byteLength" : 135360, "byteStride" : 32, "target" : 34962}, {"buffer" : 0, "byteOffset" : 242404, "byteLength" : 53760, "byteStride" : 32, "target" : 34962}, {"buffer" : 0, "byteOffset" : 296168, "byteLength" : 393024, "byteStride" : 32, "target" : 34962}, {"buffer" : 0, "byteOffset" : 689196, "byteLength" : 101952, "byteStride" : 32, "target" : 34962}, {"buffer" : 0, "byteOffset" : 791152, "byteLength" : 123648, "byteStride" : 32, "target" : 34962}, {"buffer" : 0, "byteOffset" : 914804, "byteLength" : 222720, "byteStride" : 32, "target" : 34962}, {"buffer" : 0, "byteOffset" : 1137528, "byteLength" : 9600, "byteStride" : 32, "target" : 34962}], "materials" : [{"name" : "", "pbrMetallicRoughness" : {"baseColorFactor" : [0, 0, 0, 1], "metallicFactor" : 0, "roughnessFactor" : 0}, "emissiveFactor" : [0, 0, 0], "alphaMode" : "OPAQUE", "doubleSided" : false}, {"name" : "", "pbrMetallicRoughness" : {"baseColorFactor" : [0, 0, 0, 1], "metallicFactor" : 0, "roughnessFactor" : 0}, "emissiveFactor" : [0, 0, 0], "alphaMode" : "OPAQUE", "doubleSided" : false}, {"name" : "", "pbrMetallicRoughness" : {"baseColorFactor" : [0, 0, 0, 1], "metallicFactor" : 0, "roughnessFactor" : 0}, "emissiveFactor" : [0, 0, 0], "alphaMode" : "OPAQUE", "doubleSided" : false}, {"name" : "", "pbrMetallicRoughness" : {"baseColorFactor" : [0, 0, 0, 1], "metallicFactor" : 0, "roughnessFactor" : 0}, "emissiveFactor" : [0, 0, 0], "alphaMode" : "OPAQUE", "doubleSided" : false}, {"name" : "", "pbrMetallicRoughness" : {"baseColorFactor" : [0, 0, 0, 1], "metallicFactor" : 0, "roughnessFactor" : 0}, "emissiveFactor" : [0, 0, 0], "alphaMode" : "OPAQUE", "doubleSided" : false}, {"name" : "", "pbrMetallicRoughness" : {"baseColorFactor" : [0, 0, 0, 1], "metallicFactor" : 0, "roughnessFactor" : 0}, "emissiveFactor" : [0, 0, 0], "alphaMode" : "OPAQUE", "doubleSided" : false}, {"name" : "", "pbrMetallicRoughness" : {"baseColorFactor" : [0, 0, 0, 1], "metallicFactor" : 0, "roughnessFactor" : 0}, "emissiveFactor" : [0, 0, 0], "alphaMode" : "OPAQUE", "doubleSided" : false}, {"name" : "", "pbrMetallicRoughness" : {"baseColorFactor" : [0, 0, 0, 1], "metallicFactor" : 0, "roughnessFactor" : 0}, "emissiveFactor" : [0, 0, 0], "alphaMode" : "OPAQUE", "doubleSided" : false}, {"name" : "", "pbrMetallicRoughness" : {"baseColorFactor" : [0, 0, 0, 1], "metallicFactor" : 0, "roughnessFactor" : 0}, "emissiveFactor" : [0, 0, 0], "alphaMode" : "OPAQUE", "doubleSided" : false}], "meshes" : [{"primitives" : [{"attributes" : {"POSITION" : 1, "NORMAL" : 2, "TEXCOORD_0" : 3}, "indices" : 0, "material" : 0, "mode" : 4}], "name" : "Geometry"}, {"primitives" : [{"attributes" : {"POSITION" : 5, "NORMAL" : 6, "TEXCOORD_0" : 7}, "indices" : 4, "material" : 1, "mode" : 4}], "name" : "Geometry"}, {"primitives" : [{"attributes" : {"POSITION" : 9, "NORMAL" : 10, "TEXCOORD_0" : 11}, "indices" : 8, "material" : 2, "mode" : 4}], "name" : "Geometry"}, {"primitives" : [{"attributes" : {"POSITION" : 13, "NORMAL" : 14, "TEXCOORD_0" : 15}, "indices" : 12, "material" : 3, "mode" : 4}], "name" : "Geometry"}, {"primitives" : [{"attributes" : {"POSITION" : 17, "NORMAL" : 18, "TEXCOORD_0" : 19}, "indices" : 16, "material" : 4, "mode" : 4}], "name" : "Geometry"}, {"primitives" : [{"attributes" : {"POSITION" : 21, "NORMAL" : 22, "TEXCOORD_0" : 23}, "indices" : 20, "material" : 5, "mode" : 4}], "name" : "Geometry"}, {"primitives" : [{"attributes" : {"POSITION" : 25, "NORMAL" : 26, "TEXCOORD_0" : 27}, "indices" : 24, "material" : 6, "mode" : 4}], "name" : "Geometry"}, {"primitives" : [{"attributes" : {"POSITION" : 29, "NORMAL" : 30, "TEXCOORD_0" : 31}, "indices" : 28, "material" : 7, "mode" : 4}], "name" : "Geometry"}, {"primitives" : [{"attributes" : {"POSITION" : 33, "NORMAL" : 34, "TEXCOORD_0" : 35}, "indices" : 32, "material" : 8, "mode" : 4}], "name" : "Geometry"}], "nodes" : [{"mesh" : 0, "name" : "Model"}, {"mesh" : 1, "name" : "Model"}, {"mesh" : 2, "name" : "Model"}, {"mesh" : 3, "name" : "Model"}, {"mesh" : 4, "name" : "Model"}, {"mesh" : 5, "name" : "Model"}, {"mesh" : 6, "name" : "Model"}, {"mesh" : 7, "name" : "Model"}, {"mesh" : 8, "name" : "Model"}, {"children" : [0, 1, 2, 3, 4, 5, 6, 7, 8], "name" : "Model"}], "scene" : 0, "scenes" : [{"nodes" : [9]}]}